<?xml version="1.0" encoding="UTF-8" standalone="no"?>
<svg
   width="27.515013"
   height="25.699516"
   viewBox="0 0 27.515012 25.699516"
   version="1.1"
   id="svg58"
   sodipodi:docname="32x32  Logo of TXN-0.svg"
   inkscape:version="1.4 (86a8ad7, 2024-10-11)"
   xmlns:inkscape="http://www.inkscape.org/namespaces/inkscape"
   xmlns:sodipodi="http://sodipodi.sourceforge.net/DTD/sodipodi-0.dtd"
   xmlns="http://www.w3.org/2000/svg"
   xmlns:svg="http://www.w3.org/2000/svg">
  <defs
     id="defs58" />
  <sodipodi:namedview
     id="namedview58"
     pagecolor="#ffffff"
     bordercolor="#000000"
     borderopacity="0.25"
     inkscape:showpageshadow="2"
     inkscape:pageopacity="0.0"
     inkscape:pagecheckerboard="0"
     inkscape:deskcolor="#d1d1d1"
     showgrid="true"
     inkscape:zoom="24.15625"
     inkscape:cx="12.874515"
     inkscape:cy="14.26132"
     inkscape:window-width="1920"
     inkscape:window-height="991"
     inkscape:window-x="-9"
     inkscape:window-y="-9"
     inkscape:window-maximized="1"
     inkscape:current-layer="svg58" />
  <g
     id="surface1"
     transform="translate(-33.270374,-1.8602139)">
    <path
       style="fill:#35cfd9;fill-opacity:1;fill-rule:nonzero;stroke:none;stroke-width:0.990473"
       d="m 45.177628,27.4807 c -2.644532,-0.333399 -5.484377,-1.766635 -7.382814,-3.71721 -0.46875,-0.486687 -1.316406,-1.536702 -1.316406,-1.63634 0,-0.0077 -0.05859,-0.103463 -0.125,-0.214601 l -0.128907,-0.199273 h -0.433593 c -0.394531,0 -0.535157,-0.03067 -0.457031,-0.111133 0.01562,-0.0115 0.195312,-0.03067 0.402343,-0.03831 0.207031,-0.0115 0.378907,-0.02682 0.378907,-0.03449 0,-0.0115 -0.03125,-0.06898 -0.07422,-0.12263 C 35.751844,21.00433 35.19325,19.801028 34.923719,19.003934 34.591688,18.019062 34.369032,16.823423 34.287,15.600959 l -0.02344,-0.402378 h -0.171875 c -0.347656,0 -0.402344,-0.09581 -0.07422,-0.137957 0.1875,-0.01916 0.222657,-0.03831 0.242188,-0.118799 0.04687,-0.180112 0.0078,-0.233762 -0.175781,-0.245258 -0.230469,-0.01533 -0.230469,-0.118797 0.0039,-0.134126 0.167968,-0.0115 0.167968,-0.0115 0.179687,-0.176281 l 0.01172,-0.168615 h -0.5 c -0.734375,0 -0.65625,-0.09581 0.121094,-0.145622 l 0.367187,-0.023 0.02344,-0.141789 c 0.01563,-0.07666 0.02734,-0.245258 0.02734,-0.375551 0,-0.548003 0.25,-1.965908 0.476563,-2.728509 0.203125,-0.659137 0.519531,-1.4868866 0.730469,-1.9122573 0.105468,-0.2184346 0.1875,-0.4177068 0.171875,-0.4407004 -0.01172,-0.019161 -0.113281,-0.042155 -0.222657,-0.042155 -0.109374,0 -0.199218,-0.015328 -0.199218,-0.03449 0,-0.042155 0.203125,-0.080476 0.402344,-0.080476 0.140624,0 0.164062,-0.015328 0.273437,-0.1954412 0.148437,-0.2414272 0.152344,-0.2682517 0.02734,-0.2989091 -0.152344,-0.038322 -0.121094,-0.095805 0.05469,-0.095805 0.144532,0 0.167969,-0.019161 0.308594,-0.2031051 C 36.540896,7.2238171 36.536989,7.1893278 36.294807,7.1395088 36.02137,7.0781947 36.079963,7.0130473 36.404182,7.028376 l 0.273438,0.00766 0.1875,-0.2375955 c 0.109374,-0.1302933 0.199218,-0.2567549 0.203124,-0.2759166 0.0078,-0.019161 -0.05469,-0.034489 -0.148437,-0.034489 -0.148437,0 -0.242187,-0.057483 -0.1875,-0.1073009 0.01172,-0.015328 0.117187,-0.022993 0.226563,-0.019161 0.203124,0.00383 0.21875,-0.00383 0.460937,-0.2375953 0.140625,-0.1302935 0.257813,-0.2567549 0.257813,-0.2835804 0,-0.026825 -0.179688,-0.072812 -0.453126,-0.1149657 -0.671874,-0.1034673 -0.707031,-0.1111328 -0.707031,-0.1417902 0,-0.06898 0.21875,-0.072812 0.648438,-0.019161 0.695312,0.091972 0.652343,0.1034673 0.992187,-0.2337634 0.179688,-0.1839472 0.28125,-0.3065768 0.257813,-0.3257374 -0.02343,-0.022993 -0.171864,-0.057482 -0.335927,-0.084308 -0.335937,-0.04982 -0.398437,-0.076644 -0.316406,-0.1264615 0.03125,-0.019162 0.230469,-0.011497 0.429687,0.011496 0.292969,0.034489 0.390626,0.034489 0.46875,-0.00766 0.09766,-0.053652 0.128907,-0.1571188 0.04688,-0.1609517 -0.519536,-0.019161 -0.679692,-0.030658 -0.699223,-0.049819 -0.06641,-0.057483 0.07031,-0.080476 0.503906,-0.080476 h 0.46875 l 0.398437,-0.3295645 c 0.214844,-0.1877764 0.582032,-0.4560282 0.816407,-0.6054832 0.414062,-0.2682528 0.523437,-0.3793855 0.363281,-0.3793855 -0.04297,0 -0.08984,-0.019161 -0.105469,-0.042155 -0.02344,-0.038322 0.02734,-0.045986 0.367189,-0.057483 0.09766,0 0.257812,-0.049818 0.398437,-0.1264614 1.371094,-0.712784 3.660156,-1.1649812 5.554688,-1.0998345 2.839844,0.1034684 5.003906,0.7281137 6.945312,1.9927311 0.71875,0.4675258 1.179688,0.8430794 1.839844,1.4983806 0.46875,0.4675258 0.605469,0.5786586 0.691406,0.5786586 0.144532,0 0.472656,0.080476 0.523438,0.1264616 0.02734,0.022994 -0.0625,0.034489 -0.238282,0.026826 -0.195312,-0.00383 -0.277343,0.00766 -0.269531,0.038321 0.0078,0.038323 0.472657,0.6629669 0.570313,0.762603 0.02344,0.026825 0.226562,0.08814 0.570312,0.1609519 0.0625,0.015328 0.109375,0.042155 0.109375,0.068979 0,0.030658 -0.08203,0.03449 -0.261719,0.015328 -0.285156,-0.030658 -0.3125,-0.00766 -0.167968,0.1609519 0.07422,0.080476 0.152344,0.1111327 0.363281,0.149454 0.316406,0.049819 0.367187,0.1149659 0.09375,0.1302944 -0.132813,0.00766 -0.1875,0.030658 -0.179687,0.065148 0.0078,0.026825 0.140624,0.2529241 0.292968,0.5058472 0.273438,0.4521972 0.28125,0.456029 0.425782,0.4598611 0.171874,0 0.351562,0.057483 0.351562,0.1149656 0,0.019161 -0.07422,0.042154 -0.171875,0.042154 -0.09375,0 -0.183594,0.011497 -0.195313,0.022994 -0.01172,0.011497 0.01953,0.1264614 0.07813,0.2490911 l 0.101562,0.2337634 0.382812,0.061314 c 0.53125,0.091967 0.5625,0.1149653 0.164063,0.1302932 -0.1875,0.00768 -0.355469,0.026824 -0.371094,0.042162 -0.02734,0.026824 0.08203,0.3602249 0.214844,0.65147 0.06641,0.149456 0.308594,0.904395 0.359375,1.122827 l 0.05078,0.222267 0.195313,0.01916 c 0.105468,0.01916 0.210937,0.03831 0.234375,0.04982 0.07813,0.04982 -0.0078,0.09581 -0.1875,0.09581 -0.269531,0 -0.207031,0.07666 0.07813,0.08813 0.3125,0.01532 0.324218,0.0843 0.01172,0.103464 -0.226562,0.01151 -0.230468,0.01533 -0.210937,0.114965 0.06641,0.379385 0.1875,1.237793 0.195313,1.402577 0.01172,0.191607 0.01172,0.195439 0.152343,0.206936 0.316407,0.02299 1.222657,0.172448 1.25,0.199273 0.0625,0.06131 -0.01953,0.07666 -0.554687,0.14179 -0.285156,0.03067 -0.574219,0.07281 -0.644532,0.0843 l -0.132812,0.02299 v 0.360225 c 0,1.004029 -0.1875,2.410439 -0.480469,3.556259 -0.128906,0.517343 -0.515625,1.582688 -0.761719,2.115361 -0.08984,0.18011 -0.15625,0.341061 -0.15625,0.35639 0,0.01533 0.125,0.03831 0.277344,0.04598 0.269532,0.0115 0.363282,0.04216 0.308594,0.09964 -0.01563,0.01533 -0.179688,0.03449 -0.367188,0.04216 l -0.339843,0.01533 -0.164063,0.260587 c -0.183594,0.283581 -0.179687,0.306574 0.132813,0.344895 0.234375,0.03067 0.210937,0.09198 -0.03125,0.09198 -0.191407,0 -0.457031,0.09198 -0.457031,0.153286 0,0.02299 0.04297,0.05365 0.101562,0.06897 0.132812,0.03067 0.125,0.09198 -0.01172,0.09198 -0.210937,0 -0.386719,0.203105 -0.230469,0.260588 0.101563,0.03831 0.07031,0.08047 -0.07031,0.111134 -0.15625,0.02682 -0.34375,0.199272 -0.285156,0.256756 0.01953,0.01916 0.226562,0.06131 0.457031,0.08047 0.398437,0.04216 0.476563,0.05747 0.433594,0.09198 -0.0078,0.0115 -0.265625,0.03067 -0.570313,0.04982 l -0.554687,0.02682 -0.125,0.176282 c -0.06641,0.09581 -0.265625,0.33723 -0.433594,0.532672 -0.171875,0.195441 -0.300781,0.375553 -0.296875,0.394714 0.0078,0.02682 0.121094,0.05747 0.257812,0.07281 0.136719,0.01916 0.25,0.04598 0.25,0.06515 0,0.01916 -0.140624,0.04598 -0.308593,0.06131 -0.4375,0.03449 -0.46875,0.04215 -0.609375,0.183944 -0.140625,0.141791 -0.140625,0.199272 -0.0078,0.218434 0.136719,0.01916 0.08203,0.09581 -0.125,0.160951 -0.09766,0.03449 -0.285156,0.153287 -0.414062,0.26442 -1.457031,1.226296 -2.753907,1.939081 -4.46875,2.444928 -0.78125,0.229931 -1.097657,0.295077 -1.90625,0.394716 -0.828125,0.107298 -2.472657,0.103463 -3.300781,0 z m 2.777343,-1.747472 c 2.03125,-0.233764 3.558594,-0.820086 5.101563,-1.962074 0.78125,-0.570995 1.960937,-1.785794 2.441406,-2.506242 0.07031,-0.107302 0.07031,-0.114967 0.0078,-0.160951 -0.09766,-0.06898 -0.08594,-0.08814 0.05859,-0.107303 0.117188,-0.01151 0.160156,-0.04981 0.34375,-0.325735 0.417969,-0.620811 0.886719,-1.632505 1.207032,-2.579053 0.390624,-1.14582 0.597656,-2.659529 0.542968,-3.931811 C 57.56433,11.841592 56.818236,9.7338952 55.419799,7.8408013 54.43933,6.5072043 52.849486,5.2042649 51.509643,4.633271 51.306518,4.5489635 51.083862,4.4531586 51.017455,4.426334 50.431518,4.1734099 49.240112,3.8821647 48.275268,3.7518713 c -0.75,-0.099638 -2.558594,-0.099638 -3.277344,0 -1.597656,0.2184337 -3.074219,0.7932594 -4.179688,1.6171772 -1.097657,0.8162531 -2.101563,1.8586047 -2.910157,3.019754 -0.976562,1.4102403 -1.542968,2.9354485 -1.792968,4.8093815 -0.257813,1.969736 -0.04688,3.897319 0.628906,5.729102 0.101562,0.268251 0.191406,0.509678 0.207031,0.528837 0.02344,0.023 0.06641,0.1188 0.101563,0.214603 0.148437,0.379386 0.726562,1.306772 1.121093,1.797289 0.761719,0.954214 1.324219,1.532871 2.042969,2.100034 0.60547,0.475188 1.164063,0.823917 1.921876,1.187974 0.960937,0.463693 1.765625,0.716614 2.9375,0.919722 0.703125,0.12263 2.097656,0.149454 2.878906,0.05747 z m 0,0"
       id="path4" />
    <path
       style="fill:#00262e;fill-opacity:1;fill-rule:nonzero;stroke:none"
       d="m 53.931441,18.66339 c -0.460937,-0.09766 -0.851562,-0.40625 -1.058593,-0.835937 l -0.121094,-0.265625 v -4.878906 l 0.08984,-0.226563 c 0.121093,-0.296875 0.433593,-0.640625 0.699218,-0.769531 0.769532,-0.367188 1.734375,-0.117188 2.125,0.554687 0.222656,0.378907 0.226563,0.410157 0.226563,2.882813 0,2.21875 -0.0039,2.289062 -0.08594,2.535156 -0.148437,0.4375 -0.511719,0.808594 -0.929687,0.941406 -0.253906,0.08203 -0.710938,0.109375 -0.945313,0.0625 z m 0.675781,-1.019531 c 0.0625,-0.03125 0.152344,-0.136719 0.199219,-0.234375 0.08594,-0.167969 0.08594,-0.21875 0.08594,-2.289062 0,-1.972657 -0.0078,-2.128907 -0.07813,-2.28125 -0.109372,-0.238282 -0.249997,-0.335938 -0.503903,-0.335938 -0.234376,0 -0.378907,0.08594 -0.488282,0.292969 -0.05469,0.109375 -0.06641,0.367187 -0.07422,2.128906 -0.0078,1.097656 0,2.09375 0.01172,2.210937 0.02344,0.230469 0.140625,0.4375 0.292969,0.515626 0.132813,0.06641 0.417969,0.0625 0.554687,-0.0078 z m 0,0"
       id="path5" />
    <path
       style="fill:#00262e;fill-opacity:1;fill-rule:nonzero;stroke:none"
       d="m 39.156523,15.498565 v -2.957031 h -1.160157 v -1 h 3.402344 v 0.410156 c 0,0.640625 0.05078,0.589844 -0.625,0.589844 h -0.574219 v 5.917968 h -1.042968 z m 0,0"
       id="path6" />
    <path
       style="fill:#00262e;fill-opacity:1;fill-rule:nonzero;stroke:none"
       d="m 41.913526,18.481369 c -0.01172,-0.01172 0.269531,-0.761719 0.621094,-1.671875 0.347656,-0.902344 0.644531,-1.6875 0.65625,-1.734375 0.01172,-0.05469 -0.117188,-0.433593 -0.320313,-0.960937 -0.1875,-0.480469 -0.460937,-1.1875 -0.605469,-1.574219 -0.148437,-0.382813 -0.28125,-0.738281 -0.304687,-0.789063 -0.02344,-0.05469 -0.03906,-0.109374 -0.03906,-0.128906 0,-0.02344 0.226563,-0.03906 0.535157,-0.03906 h 0.535156 l 0.136719,0.371094 c 0.08203,0.199218 0.265625,0.699218 0.414062,1.105468 0.269532,0.714844 0.277344,0.734375 0.324219,0.617188 0.02734,-0.0625 0.179687,-0.46875 0.335937,-0.894532 0.15625,-0.429687 0.316407,-0.867187 0.355469,-0.980468 l 0.07813,-0.199219 0.503906,-0.01172 c 0.5625,-0.01172 0.558594,-0.01563 0.4375,0.261719 -0.03516,0.08203 -0.140624,0.355469 -0.234374,0.609375 -0.09766,0.253906 -0.246094,0.648438 -0.332032,0.878906 -0.08984,0.234375 -0.269531,0.710938 -0.40625,1.0625 l -0.242187,0.636719 0.640625,1.691406 c 0.351562,0.925781 0.640625,1.703125 0.640625,1.726563 0,0.02734 -0.175781,0.04297 -0.515625,0.04297 h -0.511719 l -0.148437,-0.40625 c -0.527344,-1.4375 -0.679688,-1.832031 -0.691407,-1.820312 -0.01172,0.01172 -0.480469,1.261719 -0.714843,1.917969 l -0.113282,0.308593 h -0.507812 c -0.277344,0 -0.515625,-0.0078 -0.527344,-0.01953 z m 0,0"
       id="path7" />
    <path
       style="fill:#00262e;fill-opacity:1;fill-rule:nonzero;stroke:none"
       d="m 46.446304,15.081359 v -3.460937 l 0.570312,0.01172 0.5625,0.01172 0.132812,0.417969 c 0.07031,0.234375 0.230469,0.746094 0.355469,1.140625 0.238281,0.757812 0.308594,0.996093 0.566407,1.839843 l 0.152343,0.519532 0.01563,-1.96875 0.0078,-1.972656 0.511719,0.01172 0.507812,0.01172 v 6.878906 h -0.953125 l -0.05078,-0.160156 c -0.03125,-0.08594 -0.179688,-0.5625 -0.335938,-1.058594 -0.160149,-0.496099 -0.441399,-1.367193 -0.621087,-1.941412 -0.183593,-0.570313 -0.351562,-1.101563 -0.375,-1.179687 -0.02344,-0.09375 -0.03906,0.597656 -0.04297,2.113281 l -0.0039,2.246093 h -1 z m 0,0"
       id="path8" />
    <path
       style="fill:#00262e;fill-opacity:1;fill-rule:nonzero;stroke:none"
       d="m 50.393187,15.382232 c -0.01563,-0.01172 -0.02734,-0.25 -0.02734,-0.519531 v -0.492188 l 0.832031,0.0078 0.828125,0.01172 0.01172,0.476563 c 0.0078,0.351562 -0.0039,0.484375 -0.03906,0.507812 -0.05859,0.03906 -1.566407,0.04687 -1.605469,0.0078 z m 0,0"
       id="path9" />
  </g>
</svg>
